#!OML:ASF I:\golf\golf\golf 2\Subject 1\2002-09-07\Subject1.ASF
:FULLY-SPECIFIED
:DEGREES
288
root 1.54127 16.3335 -2.01424 54.6789 11.5389 5.37505
lowerback 34.448 4.0915 2.3857
upperback 22.5133 5.88025 14.2883
thorax 5.80889 1.93758 12.652
lowerneck -25.5573 -12.327 -25.1608
upperneck 5.01506 -7.83935 -2.99997
head 6.19 -4.65155 1.54949
rclavicle 4.92986e-014 5.56597e-015
rhumerus 73.4338 -11.5563 -57.644
rradius 19.608
rwrist -0.326356
rhand -41.841 13.6304
rfingers 7.12502
rthumb -14.742 -15.8254
lclavicle 4.92986e-014 5.56597e-015
lhumerus -2.80998 -40.2261 89.8246
lradius 93.7042
lwrist -9.70579
lhand -42.9487 15.6297
lfingers 7.12502
lthumb -15.809 45.0042
rfemur -91.062 -21.8755 30.4571
rtibia 60.9891
rfoot -19.0168 -3.36179
rtoes -4.53132
lfemur -91.6837 -3.02771 -30.7852
ltibia 47.5841
lfoot -4.05448 -22.8394
ltoes 5.34238
289
root 1.51239 16.4225 -1.99798 53.0655 11.2823 5.00399
lowerback 36.0705 4.33794 2.04641
upperback 22.6631 6.17087 14.3177
thorax 5.308 2.03607 12.6909
lowerneck -25.7718 -12.3086 -25.2495
upperneck 5.1957 -7.72039 -2.78557
head 6.28282 -4.5949 1.63779
rclavicle 4.45278e-014 -3.97569e-015
rhumerus 73.047 -11.2524 -57.9019
rradius 19.5231
rwrist -1.08465
rhand -41.2277 12.7617
rfingers 7.12502
rthumb -14.1511 -16.7363
lclavicle 4.45278e-014 -3.97569e-015
lhumerus -2.6321 -40.1729 89.6279
lradius 93.3045
lwrist -9.88991
lhand -42.6525 16.495
lfingers 7.12502
lthumb -15.5236 45.8919
rfemur -88.7389 -21.5874 29.783
rtibia 60.5597
rfoot -19.1514 -3.50224
rtoes -4.4408
lfemur -89.778 -2.08964 -30.9246
ltibia 47.258
lfoot -4.31932 -23.0047
ltoes 5.32995
290
root 1.51145 16.3923 -2.02502 53.5965 11.609 5.32772
lowerback 35.0445 3.94264 2.33541
upperback 22.4562 5.7435 14.1961
thorax 5.56656 1.87948 12.5781
lowerneck -25.9003 -12.2296 -25.1924
upperneck 5.33687 -7.57682 -2.79494
head 6.33627 -4.53762 1.64094
rclavicle 2.22639e-014 -4.53229e-014
rhumerus 72.559 -10.8733 -57.9923
rradius 19.5464
rwrist -1.79979
rhand -40.7192 12.2769
rfingers 7.12502
rthumb -13.661 -17.2548
lclavicle 2.22639e-014 -4.53229e-014
lhumerus -2.66811 -40.0164 89.8145
lradius 93.0941
lwrist -10.3384
lhand -42.2302 17.543
lfingers 7.12502
lthumb -15.1169 46.971
rfemur -89.4464 -21.8301 29.9422
rtibia 60.4482
rfoot -18.7702 -3.66622
rtoes -4.62915
lfemur -90.272 -2.66077 -30.8683
ltibia 47.0359
lfoot -4.03436 -22.974
ltoes 5.00263
291
root 1.48414 16.4387 -2.02777 52.8506 11.4173 5.11892
lowerback 35.4581 4.12871 1.94931
upperback 22.5108 5.88995 14.22
thorax 5.40378 1.91269 12.7479
lowerneck -26.0776 -12.2513 -25.349
upperneck 5.53466 -7.49264 -2.62707
head 6.43333 -4.50371 1.71739
rclavicle 7.95139e-015 1.43125e-014
rhumerus 71.9921 -10.445 -57.6952
rradius 19.6405
rwrist -2.6638
rhand -40.2598 11.4529
rfingers 7.12502
rthumb -13.2182 -18.108
lclavicle 7.95139e-015 1.43125e-014
lhumerus -2.38963 -39.5824 89.835
lradius 92.8713
lwrist -8.59535
lhand -41.5449 15.5939
lfingers 7.12502
lthumb -14.4567 45.0703
rfemur -88.3164 -21.509 29.5436
rtibia 60.0961
rfoot -18.6836 -3.80806
rtoes -4.51911
lfemur -89.3734 -2.13551 -30.9013
ltibia 46.7375
lfoot -4.06037 -22.9795
ltoes 4.70971
292
root 1.47442 16.4334 -2.04843 52.9005 11.5151 5.13122
lowerback 34.8158 4.0021 2.0152
upperback 22.4509 5.72512 14.1667
thorax 5.61028 1.84743 12.7379
lowerneck -26.3455 -12.2961 -25.7301
upperneck 5.90952 -7.34324 -2.21407
head 6.61457 -4.43743 1.90785
rclavicle -3.49861e-014 -8.74653e-015
rhumerus 71.1837 -9.95444 -56.7567
rradius 19.9197
rwrist -3.73232
rhand -39.7078 10.2532
rfingers 7.12502
rthumb -12.686 -19.3415
lclavicle -3.49861e-014 -8.74653e-015
lhumerus -1.98593 -39.5234 89.8219
lradius 92.3524
lwrist -8.13075
lhand -41.2418 15.5158
lfingers 7.12502
lthumb -14.1647 45.0129
rfemur -88.4238 -21.4788 29.606
rtibia 60.0387
rfoot -18.5682 -3.86124
rtoes -4.60694
lfemur -89.4187 -2.24585 -30.7385
ltibia 46.5639
lfoot -4.11134 -22.8392
ltoes 3.64907
293
root 1.45199 16.4955 -2.04346 51.7577 11.4121 5.02026
lowerback 35.655 4.12397 1.78892
upperback 22.5235 5.86426 14.2442
thorax 5.33246 1.88767 12.8619
lowerneck -26.6936 -12.3428 -26.0073
upperneck 6.4808 -7.18411 -1.85461
head 6.87155 -4.38613 2.06275
rclavicle -6.04305e-014 2.06736e-014
rhumerus 70.1943 -9.43957 -55.7798
rradius 20.3131
rwrist -4.46112
rhand -38.9642 9.24046
rfingers 7.12502
rthumb -11.9691 -20.3973
lclavicle -6.04305e-014 2.06736e-014
lhumerus -1.63883 -39.4732 89.8499
lradius 91.8723
lwrist -7.50698
lhand -41.2505 15.5288
lfingers 7.12502
lthumb -14.173 45.0253
rfemur -86.7444 -21.3818 29.0456
rtibia 59.6788
rfoot -18.6603 -3.98256
rtoes -4.61835
lfemur -87.9691 -1.79331 -30.7419
ltibia 46.2459
lfoot -4.44137 -22.8379
ltoes 2.83394
294
root 1.44455 16.466 -2.07269 52.2341 11.7477 5.13475
lowerback 34.4801 3.83716 2.10542
upperback 22.3471 5.55148 14.1372
thorax 5.66122 1.78514 12.7211
lowerneck -27.0755 -12.3601 -25.9723
upperneck 7.00993 -7.06559 -1.71381
head 7.10622 -4.36287 2.0994
rclavicle -3.33958e-014 -5.64548e-014
rhumerus 69.1492 -8.85967 -54.8802
rradius 20.7082
rwrist -5.03358
rhand -38.2122 8.58524
rfingers 7.12502
rthumb -11.2439 -21.0934
lclavicle -3.33958e-014 -5.64548e-014
lhumerus -1.44183 -39.3941 89.8524
lradius 91.555
lwrist -6.85768
lhand -40.8239 15.6225
lfingers 7.12502
lthumb -13.7619 45.1473
rfemur -87.3717 -21.4476 29.3262
rtibia 59.5462
rfoot -18.4451 -4.03603
rtoes -4.34849
lfemur -88.4934 -2.23619 -30.4094
ltibia 46.0002
lfoot -4.15386 -22.715
ltoes 2.55235
295
root 1.41395 16.5434 -2.06611 50.792 11.5726 4.74259
lowerback 35.599 4.10126 1.72614
upperback 22.4423 5.83222 14.2283
thorax 5.25945 1.8774 12.8835
lowerneck -27.2787 -12.2996 -25.9378
upperneck 7.25599 -6.91626 -1.65311
head 7.20956 -4.30618 2.12806
rclavicle -5.725e-014 -6.83819e-014
rhumerus 68.0112 -8.04636 -53.4639
rradius 21.1588
rwrist -5.99945
rhand -37.2515 8.03347
rfingers 7.12502
rthumb -10.3173 -21.6935
lclavicle -5.725e-014 -6.83819e-014
lhumerus -1.41786 -39.1581 90.0215
lradius 91.337
lwrist -6.29525
lhand -40.228 15.5116
lfingers 7.12502
lthumb -13.1876 45.0745
rfemur -85.3154 -21.1158 28.8386
rtibia 59.1413
rfoot -18.5889 -4.17336
rtoes -4.65606
lfemur -86.819 -1.44796 -30.2554
ltibia 45.6664
lfoot -4.24799 -22.7164
ltoes 2.55845
296
root 1.39265 16.5783 -2.07322 50.1186 11.5225 4.56082
lowerback 35.7383 4.21926 1.42029
upperback 22.2289 5.91876 14.0752
thorax 4.9342 1.92494 12.815
lowerneck -26.7878 -11.8483 -25.0454
upperneck 7.08565 -6.78925 -1.89633
head 7.0387 -4.22802 1.98245
rclavicle -1.59028e-014 -2.70347e-014
rhumerus 66.5137 -7.05084 -52.3342
rradius 21.5864
rwrist -6.77517
rhand -36.0602 7.47802
rfingers 7.12502
rthumb -9.16793 -22.3027
lclavicle -1.59028e-014 -2.70347e-014
lhumerus -1.83946 -39.1503 89.9954
lradius 91.1281
lwrist -5.97532
lhand -39.8371 15.5186
lfingers 7.12502
lthumb -12.8108 45.1055
rfemur -84.3364 -20.9056 28.6155
rtibia 58.8125
rfoot -18.5093 -4.34658
rtoes -5.00755
lfemur -86.0209 -1.12718 -30.0616
ltibia 45.3802
lfoot -4.26097 -22.6427
ltoes 2.20925
297
root 1.38081 16.5701 -2.09731 50.1953 11.8105 4.52843
lowerback 34.965 4.04789 1.52906
upperback 21.8697 5.732 13.8471
thorax 4.87683 1.88948 12.5671
lowerneck -26.3104 -11.4183 -24.0333
upperneck 6.96151 -6.70339 -2.2107
head 6.88498 -4.17683 1.78729
rclavicle -3.18055e-015 5.88403e-014
rhumerus 64.9945 -5.95153 -51.2287
rradius 22.0222
rwrist -7.14898
rhand -35.0619 6.89716
rfingers 7.12502
rthumb -8.20454 -22.9235
lclavicle -3.18055e-015 5.88403e-014
lhumerus -2.24742 -39.215 89.9591
lradius 90.7475
lwrist -5.71205
lhand -39.6544 15.6851
lfingers 7.12502
lthumb -12.6347 45.283
rfemur -84.3624 -20.8822 28.7854
rtibia 58.4468
rfoot -18.1928 -4.41345
rtoes -4.55262
lfemur -86.0793 -1.32426 -29.7012
ltibia 45.0456
lfoot -4.0447 -22.541
ltoes 1.5953
298
root 1.35365 16.625 -2.1017 49.1818 11.774 4.17841
lowerback 35.5012 4.19844 1.31799
upperback 21.6622 5.89578 13.6798
thorax 4.41985 1.98132 12.3855
lowerneck -25.9199 -11.027 -23.1283
upperneck 7.04323 -6.59396 -2.37739
head 6.82191 -4.11979 1.65024
rclavicle 2.06736e-014 1.24837e-013
rhumerus 63.3388 -4.61257 -49.8734
rradius 22.509
rwrist -7.56574
rhand -34.2759 6.53728
rfingers 7.12502
rthumb -7.44588 -23.3117
lclavicle 2.06736e-014 1.24837e-013
lhumerus -2.66969 -39.1977 90.044
lradius 90.1054
lwrist -5.50497
lhand -39.3707 15.5702
lfingers 7.12502
lthumb -12.3611 45.1847
rfemur -82.9047 -20.5895 28.5543
rtibia 58.0184
rfoot -18.1891 -4.40404
rtoes -3.87782
lfemur -84.9005 -0.783032 -29.423
ltibia 44.6953
lfoot -3.98266 -22.4976
ltoes 1.50267
299
root 1.33166 16.6772 -2.10494 48.1916 11.6398 3.91674
lowerback 35.9511 4.33693 1.09239
upperback 21.4459 6.03019 13.4624
thorax 3.99992 2.06125 12.1702
lowerneck -25.465 -10.6243 -22.1853
upperneck 7.04711 -6.49355 -2.56819
head 6.72089 -4.06073 1.50102
rclavicle -1.59028e-014 -1.66979e-014
rhumerus 61.5928 -3.10825 -48.2918
rradius 23.0912
rwrist -8.16789
rhand -33.3165 6.15143
rfingers 7.12502
rthumb -6.51978 -23.7282
lclavicle -1.59028e-014 -1.66979e-014
lhumerus -2.94728 -39.1222 90.1761
lradius 89.2523
lwrist -5.29844
lhand -38.9861 15.0403
lfingers 7.12502
lthumb -11.9903 44.6769
rfemur -81.5103 -20.3627 28.27
rtibia 57.5983
rfoot -18.2192 -4.39189
rtoes -3.61131
lfemur -83.6944 -0.309789 -29.2196
ltibia 44.3161
lfoot -4.07314 -22.4098
ltoes 1.44453
300
root 1.32023 16.6892 -2.12198 47.8576 11.7089 3.81594
lowerback 35.5333 4.28543 1.09541
upperback 21.1334 5.96847 13.227
thorax 3.8363 2.07277 11.9187
lowerneck -24.88 -10.211 -21.1417
upperneck 6.90869 -6.42002 -2.96552
head 6.54514 -4.01748 1.27037
rclavicle -1.59028e-015 -1.11319e-014
rhumerus 59.9385 -1.68372 -46.9997
rradius 23.632
rwrist -8.5343
rhand -32.0319 5.87454
rfingers 7.12502
rthumb -5.27949 -24.0397
lclavicle -1.59028e-015 -1.11319e-014
lhumerus -3.23595 -39.4413 90.0292
lradius 89.041
lwrist -4.54
lhand -38.3975 15.3112
lfingers 7.12502
lthumb -11.4227 44.9801
rfemur -81.0285 -20.2842 28.255
rtibia 57.238
rfoot -18.0791 -4.48492
rtoes -3.75197
lfemur -83.2465 -0.31309 -28.8958
ltibia 43.934
lfoot -4.21886 -22.2593
ltoes 0.791683
